<?xml version="1.0" encoding="UTF-8"?>
<svg version="1.1" xmlns="http://www.w3.org/2000/svg" width="66" height="66">
<path d="M0 0 C7.52745317 6.30390954 11.3397029 14.52473065 12.20703125 24.26171875 C12.13389247 33.81364339 8.47636389 41.76330216 2.1875 48.8125 C-0.93474588 51.64683386 -3.43308139 53.8125 -7.8125 53.8125 C-7.77769531 53.13445313 -7.74289063 52.45640625 -7.70703125 51.7578125 C-7.55869345 46.65781758 -7.7465603 42.3631131 -9.375 37.5 C-10.68787693 33.56136922 -11.29069055 30.8528875 -9.8125 26.8125 C-6.57441709 23.03473661 -1.48948306 22.66195205 3.1875 21.8125 C2.67960937 21.53277344 2.17171875 21.25304687 1.6484375 20.96484375 C-2.1704517 18.74073413 -5.0747733 16.73688529 -7.75 13.1875 C-11.05936289 9.09998963 -14.62382931 7.49974115 -19.8125 6.8125 C-27.94708478 7.03384925 -33.49758774 11.37032419 -38.94921875 17.03125 C-42.38236826 20.83880954 -45.67355637 24.75803114 -48.8125 28.8125 C-49.8125 27.8125 -49.8125 27.8125 -50.125 23.875 C-49.99102857 15.4348002 -46.46738048 8.62135573 -40.73046875 2.56640625 C-29.08818689 -8.07999814 -12.91588112 -9.39726899 0 0 Z " fill="#1B89BA" transform="translate(51.8125,7.1875)"/>
<path d="M0 0 C-0.61277612 2.96175123 -1.25372522 4.38058783 -3 7 C-3.24660971 10.08262132 -3.26776578 11.26902122 -2 14 C0.36449928 16.42100386 2.88588767 18.55122574 5.48046875 20.72265625 C9.94557355 24.75855718 13.62489838 30.01815199 14.203125 36.15625 C14.21859375 36.9296875 14.2340625 37.703125 14.25 38.5 C14.27578125 39.2734375 14.3015625 40.046875 14.328125 40.84375 C14 43 14 43 12.734375 44.75390625 C9.43019121 47.12785812 5.88447418 46.51403568 2 46 C-7.60114958 43.71206648 -14.37914157 39.03455602 -20.0625 31 C-21.59927992 28.25687407 -22.00660873 26.91243435 -22.25 23.6875 C-19.06772215 14.29978033 -11.00826553 0 0 0 Z " fill="#1B8ABB" transform="translate(26,18)"/>
<path d="M0 0 C-0.32433508 5.35152885 -3.49704824 8.28280043 -7 12 C-7.92619141 11.64035156 -7.92619141 11.64035156 -8.87109375 11.2734375 C-15.14696616 9.07640454 -19.77993698 8.35844874 -26 11 C-34.27433642 15.67884678 -40.26741495 23.59541097 -46 31 C-47 30 -47 30 -47.3125 26.0625 C-47.17852857 17.6223002 -43.65488048 10.80885573 -37.91796875 4.75390625 C-27.0308678 -5.20191519 -13.164829 -6.5824145 0 0 Z " fill="#50A7CC" transform="translate(49,5)"/>
<path d="M0 0 C-0.61277612 2.96175123 -1.25372522 4.38058783 -3 7 C-3.02639829 9.29714187 -3.02639829 9.29714187 -2.625 11.6875 C-2.51414062 12.49574219 -2.40328125 13.30398437 -2.2890625 14.13671875 C-2.19367187 14.75160156 -2.09828125 15.36648437 -2 16 C-4.76543196 17.51012131 -7.53816807 19.00630148 -10.3125 20.5 C-11.09818359 20.92925781 -11.88386719 21.35851562 -12.69335938 21.80078125 C-13.8293457 22.40986328 -13.8293457 22.40986328 -14.98828125 23.03125 C-15.68477783 23.40830078 -16.38127441 23.78535156 -17.09887695 24.17382812 C-19 25 -19 25 -22 25 C-21.42887939 20.79655229 -20.00402094 18.03182636 -17.6875 14.5 C-17.09324219 13.5821875 -16.49898437 12.664375 -15.88671875 11.71875 C-7.75431034 0 -7.75431034 0 0 0 Z " fill="#50A7CB" transform="translate(26,18)"/>
<path d="M0 0 C1.65 0.33 3.3 0.66 5 1 C4.67 1.99 4.34 2.98 4 4 C2.35 3.67 0.7 3.34 -1 3 C-0.67 2.01 -0.34 1.02 0 0 Z " fill="#1988BA" transform="translate(37,20)"/>
<path d="" fill="#00FFFF" transform="translate(0,0)"/>
</svg>
